<?xml version="1.0" standalone="no"?>
<!DOCTYPE svg PUBLIC "-//W3C//DTD SVG 20010904//EN"
 "http://www.w3.org/TR/2001/REC-SVG-20010904/DTD/svg10.dtd">
<svg version="1.0" xmlns="http://www.w3.org/2000/svg"
 width="128.000000pt" height="128.000000pt" viewBox="0 0 128.000000 128.000000"
 preserveAspectRatio="xMidYMid meet">

<g transform="translate(0.000000,128.000000) scale(0.100000,-0.100000)"
fill="#3D88E2" stroke="none">
<path d="M565 1271 c-92 -24 -174 -91 -214 -176 -21 -42 -25 -70 -29 -171 l-4
-122 -45 -5 c-33 -3 -54 -13 -77 -36 l-31 -31 0 -330 0 -330 33 -32 32 -33
410 0 410 0 32 33 33 32 0 330 0 330 -31 31 c-23 23 -44 33 -77 36 l-45 5 -4
122 c-4 115 -6 124 -38 184 -37 70 -69 101 -142 138 -54 27 -159 40 -213 25z
m149 -83 c55 -16 138 -99 154 -154 7 -23 12 -85 12 -138 l0 -96 -240 0 -240 0
0 96 c0 128 13 168 75 229 70 71 145 90 239 63z m314 -480 c17 -17 17 -599 0
-616 -17 -17 -759 -17 -776 0 -17 17 -17 599 0 616 17 17 759 17 776 0z"/>
</g>
</svg>
